<svg xmlns="http://www.w3.org/2000/svg" width="1200" height="700" viewBox="0 0 1200 700">
  <defs><linearGradient id="bg" x1="0" x2="1" y1="0" y2="1"><stop stop-color="#fff7ed"/><stop offset=".55" stop-color="#fff"/><stop offset="1" stop-color="#dbeafe"/></linearGradient><linearGradient id="a" x1="0" x2="1"><stop stop-color="#ff6a00"/><stop offset="1" stop-color="#172554"/></linearGradient></defs>
  <rect width="1200" height="700" fill="url(#bg)"/><circle cx="980" cy="130" r="230" fill="#ff6a00" opacity=".14"/><circle cx="160" cy="590" r="260" fill="#172554" opacity=".10"/>
  <g opacity=".12" stroke="#172554"><path d="M0 140h1200M0 280h1200M0 420h1200M0 560h1200M200 0v700M400 0v700M600 0v700M800 0v700M1000 0v700"/></g>
  <rect x="115" y="100" width="970" height="500" rx="54" fill="#fff" opacity=".88"/>
  <circle cx="335" cy="350" r="150" fill="#fff7ed" stroke="#ff6a00" stroke-width="24"/>
  <path d="M335 255v103l78 54" fill="none" stroke="#172554" stroke-width="28" stroke-linecap="round" stroke-linejoin="round"/>
  <text x="540" y="280" font-family="Inter,Arial,sans-serif" font-size="32" font-weight="900" fill="#ff6a00">GERMAN LESSON</text>
  <text x="540" y="365" font-family="Inter,Arial,sans-serif" font-size="74" font-weight="900" fill="#101828">Tell the Time</text>
  <text x="540" y="425" font-family="Inter,Arial,sans-serif" font-size="30" font-weight="700" fill="#475569">Uhrzeit, halb, Viertel, nach und vor</text>
  <rect x="540" y="470" width="180" height="54" rx="27" fill="url(#a)"/><text x="630" y="505" text-anchor="middle" font-family="Inter,Arial,sans-serif" font-size="20" font-weight="900" fill="#fff">A1 Practice</text>
</svg>
