<svg xmlns="http://www.w3.org/2000/svg" width="1200" height="700" viewBox="0 0 1200 700" role="img" aria-labelledby="title desc">
  <title id="title">Falowen German Learning</title>
  <desc id="desc">Branded Falowen German learning fallback image.</desc>
  <defs>
    <linearGradient id="bg" x1="0" x2="1" y1="0" y2="1">
      <stop offset="0" stop-color="#fff7ed"/>
      <stop offset="0.52" stop-color="#ffffff"/>
      <stop offset="1" stop-color="#dbeafe"/>
    </linearGradient>
    <linearGradient id="accent" x1="0" x2="1" y1="0" y2="1">
      <stop offset="0" stop-color="#ff6a00"/>
      <stop offset="1" stop-color="#172554"/>
    </linearGradient>
    <filter id="shadow" x="-20%" y="-20%" width="140%" height="140%">
      <feDropShadow dx="0" dy="24" stdDeviation="28" flood-color="#0f172a" flood-opacity="0.16"/>
    </filter>
  </defs>
  <rect width="1200" height="700" fill="url(#bg)"/>
  <circle cx="1030" cy="110" r="210" fill="#ff6a00" opacity="0.13"/>
  <circle cx="115" cy="590" r="260" fill="#172554" opacity="0.11"/>
  <g opacity="0.16" stroke="#172554" stroke-width="1">
    <path d="M0 120h1200M0 220h1200M0 320h1200M0 420h1200M0 520h1200M160 0v700M320 0v700M480 0v700M640 0v700M800 0v700M960 0v700"/>
  </g>
  <g filter="url(#shadow)">
    <rect x="120" y="126" width="960" height="448" rx="46" fill="#ffffff" opacity="0.86"/>
    <rect x="154" y="160" width="116" height="116" rx="34" fill="url(#accent)"/>
    <text x="212" y="235" text-anchor="middle" font-family="Inter, Arial, sans-serif" font-size="68" font-weight="900" fill="#ffffff">F</text>
    <text x="154" y="342" font-family="Inter, Arial, sans-serif" font-size="58" font-weight="900" fill="#101828">Falowen German Blog</text>
    <text x="154" y="407" font-family="Inter, Arial, sans-serif" font-size="31" font-weight="700" fill="#475569">Learn German with clear lessons, practice and confidence.</text>
    <g transform="translate(154 465)">
      <rect width="150" height="48" rx="24" fill="#ff6a00"/>
      <text x="75" y="31" text-anchor="middle" font-family="Inter, Arial, sans-serif" font-size="18" font-weight="800" fill="#ffffff">A1 - C1</text>
      <rect x="170" width="190" height="48" rx="24" fill="#172554"/>
      <text x="265" y="31" text-anchor="middle" font-family="Inter, Arial, sans-serif" font-size="18" font-weight="800" fill="#ffffff">Exam Prep</text>
      <rect x="380" width="210" height="48" rx="24" fill="#f59e0b"/>
      <text x="485" y="31" text-anchor="middle" font-family="Inter, Arial, sans-serif" font-size="18" font-weight="800" fill="#111827">Speaking</text>
    </g>
  </g>
</svg>
