<svg xmlns="http://www.w3.org/2000/svg" width="1200" height="700" viewBox="0 0 1200 700">
  <defs><linearGradient id="bg" x1="0" x2="1" y1="0" y2="1"><stop stop-color="#eff6ff"/><stop offset=".5" stop-color="#fff"/><stop offset="1" stop-color="#fff7ed"/></linearGradient><linearGradient id="a" x1="0" x2="1"><stop stop-color="#172554"/><stop offset="1" stop-color="#ff6a00"/></linearGradient></defs>
  <rect width="1200" height="700" fill="url(#bg)"/><circle cx="980" cy="120" r="250" fill="#172554" opacity=".10"/><circle cx="140" cy="610" r="260" fill="#ff6a00" opacity=".13"/>
  <rect x="120" y="105" width="960" height="490" rx="54" fill="#fff" opacity=".88"/>
  <g transform="translate(170 180)"><rect width="260" height="330" rx="32" fill="#fff7ed" stroke="#ff6a00" stroke-width="6"/><path d="M55 85h150M55 145h120M55 205h165M55 265h95" stroke="#172554" stroke-width="18" stroke-linecap="round" opacity=".85"/></g>
  <g transform="translate(470 180)"><rect width="260" height="330" rx="32" fill="#eff6ff" stroke="#172554" stroke-width="6"/><path d="M55 85h150M55 145h120M55 205h165M55 265h95" stroke="#ff6a00" stroke-width="18" stroke-linecap="round" opacity=".9"/></g>
  <text x="770" y="290" font-family="Inter,Arial,sans-serif" font-size="32" font-weight="900" fill="#ff6a00">GERMAN WORDS</text>
  <text x="770" y="370" font-family="Inter,Arial,sans-serif" font-size="66" font-weight="900" fill="#101828">Vocabulary</text>
  <text x="770" y="425" font-family="Inter,Arial,sans-serif" font-size="29" font-weight="700" fill="#475569">Build useful words daily.</text>
  <rect x="770" y="470" width="180" height="54" rx="27" fill="url(#a)"/><text x="860" y="505" text-anchor="middle" font-family="Inter,Arial,sans-serif" font-size="20" font-weight="900" fill="#fff">Learn Faster</text>
</svg>
